<?xml version="1.0" encoding="utf-8"?>
<!-- Generator: Adobe Illustrator 22.0.1, SVG Export Plug-In . SVG Version: 6.00 Build 0)  -->
<svg version="1.1" id="Hunted" xmlns="http://www.w3.org/2000/svg" xmlns:xlink="http://www.w3.org/1999/xlink" x="0px" y="0px"
	 viewBox="0 0 1000 1000" style="enable-background:new 0 0 1000 1000;" xml:space="preserve">
<style type="text/css">
	.st0{fill:#0000FF;}
	.st1{fill:#FFFFCB;}
</style>
<polyline id="Body_4_" class="st0" points="363.5,5.2 659.5,5.2 659.5,55.2 709,55.2 709,67.2 794.5,67.2 794.5,115.7 807.5,115.7 
	807.5,141.2 857,141.2 857,202.2 918.5,202.2 918.5,214.7 931.5,214.7 931.5,424.7 992,424.7 993,992.2 918.5,992.2 918.5,943.7 
	906,943.7 906,931.2 869.5,931.2 869.5,906.7 856.5,906.7 856.5,857.2 783,857.2 783,918.2 771,918.2 771,930.7 733,930.7 
	733,943.2 721.5,943.2 721.5,981.2 709,981.2 709,992.2 561.5,992.2 561.5,868.7 548,868.7 548,857.2 461.5,857.2 461.5,868.2 
	450,868.2 450,967.7 438,967.7 438,992.2 277,992.2 277,967.7 265,967.7 265,943.7 252.5,943.7 252.5,930.2 228,930.2 228,881.7 
	214.5,881.7 214.5,869.2 202.5,869.2 202.5,857.2 166,857.2 166,869.2 153.5,869.2 153.5,918.2 141,918.2 141,930.7 104,930.7 
	104,992.2 6,992.2 6,436.7 17.5,436.7 17.5,424.7 79,424.7 79,226.2 92,226.2 92,201.7 141.5,201.7 141.5,164.7 153.5,164.7 
	153.5,152.7 166,152.7 166,140.7 215,140.7 215,103.2 227.5,103.2 227.5,65.7 364,65.7 364,5.2 "/>
<g id="Mouth">
	<g id="Up_1_">
		<rect x="223" y="591.9" class="st1" width="55.3" height="55.5"/>
		<rect x="167.7" y="647.4" class="st1" width="55.3" height="55.5"/>
	</g>
	<g id="Down">
		<rect x="333.6" y="647.4" class="st1" width="55.3" height="55.5"/>
		<rect x="278.3" y="591.9" class="st1" width="55.3" height="55.5"/>
	</g>
	<g id="Up_2_">
		<rect x="444.2" y="591.9" class="st1" width="55.3" height="55.5"/>
		<rect x="388.9" y="647.4" class="st1" width="55.3" height="55.5"/>
	</g>
	<g id="Down_1_">
		<rect x="554.2" y="647.4" class="st1" width="55.3" height="55.5"/>
		<rect x="498.9" y="591.9" class="st1" width="55.3" height="55.5"/>
	</g>
	<g id="Up_3_">
		<rect x="664.8" y="591.9" class="st1" width="55.3" height="55.5"/>
		<rect x="609.5" y="647.4" class="st1" width="55.3" height="55.5"/>
	</g>
	<g id="Down_2_">
		<rect x="775.4" y="647.4" class="st1" width="55.3" height="55.5"/>
		<rect x="720.1" y="591.9" class="st1" width="55.3" height="55.5"/>
	</g>
</g>
<g id="LeftEye_4_">
	<rect id="rect43" x="266.2" y="307.6" class="st1" width="122.7" height="123.3"/>
</g>
<g id="RightEye_4_">
	<rect id="rect48" x="609.5" y="307.6" class="st1" width="122.7" height="123.3"/>
</g>
</svg>
