<?xml version="1.0" encoding="utf-8"?>
<!-- Generator: Adobe Illustrator 22.0.1, SVG Export Plug-In . SVG Version: 6.00 Build 0)  -->
<svg version="1.1" id="Ebene_1" xmlns="http://www.w3.org/2000/svg" xmlns:xlink="http://www.w3.org/1999/xlink" x="0px" y="0px"
	 viewBox="0 0 1000 1000" style="enable-background:new 0 0 1000 1000;" xml:space="preserve">
<style type="text/css">
	.st0{display:none;}
	.st1{display:inline;fill:#0000FF;}
	.st2{display:inline;}
	.st3{fill:#FFFFCB;}
	.st4{display:inline;fill:#E90000;}
	.st5{fill:#FFFFFF;}
	.st6{fill:#036CBF;}
	.st7{display:inline;fill:#FFBE42;}
	.st8{fill:#05FFE0;}
	.st9{display:inline;fill:#FEBEDE;}
</style>
<g id="Hunted" class="st0">
	<polyline id="Body_4_" class="st1" points="371.5,0 667.5,0 667.5,50 717,50 717,62 802.5,62 802.5,110.5 815.5,110.5 815.5,136 
		865,136 865,197 926.5,197 926.5,209.5 939.5,209.5 939.5,419.5 1000,419.5 1001,987 926.5,987 926.5,938.5 914,938.5 914,926 
		877.5,926 877.5,901.5 864.5,901.5 864.5,852 791,852 791,913 779,913 779,925.5 741,925.5 741,938 729.5,938 729.5,976 717,976 
		717,987 569.5,987 569.5,863.5 556,863.5 556,852 469.5,852 469.5,863 458,863 458,962.5 446,962.5 446,987 285,987 285,962.5 
		273,962.5 273,938.5 260.5,938.5 260.5,925 236,925 236,876.5 222.5,876.5 222.5,864 210.5,864 210.5,852 174,852 174,864 
		161.5,864 161.5,913 149,913 149,925.5 112,925.5 112,987 14,987 14,431.5 25.5,431.5 25.5,419.5 87,419.5 87,221 100,221 
		100,196.5 149.5,196.5 149.5,159.5 161.5,159.5 161.5,147.5 174,147.5 174,135.5 223,135.5 223,98 235.5,98 235.5,60.5 372,60.5 
		372,0 	"/>
	<g id="Mouth" class="st2">
		<g id="Up_1_">
			<rect x="179.7" y="682.5" class="st3" width="27.3" height="27.4"/>
			<rect x="207" y="655" class="st3" width="27.3" height="27.5"/>
			<rect x="234.3" y="627.5" class="st3" width="27.3" height="27.5"/>
			<rect x="261.7" y="600" class="st3" width="27.3" height="27.5"/>
		</g>
		<g id="Down">
			<rect x="370.9" y="682.5" class="st3" width="27.3" height="27.4"/>
			<rect x="343.6" y="655" class="st3" width="27.3" height="27.5"/>
			<rect x="316.3" y="627.5" class="st3" width="27.3" height="27.5"/>
			<rect x="289" y="600" class="st3" width="27.3" height="27.5"/>
		</g>
		<g id="Up_2_">
			<rect x="398.2" y="682.5" class="st3" width="27.3" height="27.4"/>
			<rect x="425.6" y="655.1" class="st3" width="27.3" height="27.5"/>
			<rect x="452.9" y="627.6" class="st3" width="27.3" height="27.5"/>
			<rect x="480.2" y="600.1" class="st3" width="27.3" height="27.5"/>
		</g>
		<g id="Down_1_">
			<rect x="589.4" y="682.5" class="st3" width="27.3" height="27.4"/>
			<rect x="562.1" y="655.1" class="st3" width="27.3" height="27.5"/>
			<rect x="534.8" y="627.5" class="st3" width="27.3" height="27.5"/>
			<rect x="507.5" y="600.1" class="st3" width="27.3" height="27.5"/>
		</g>
		<g id="Up_3_">
			<rect x="616.8" y="682.6" class="st3" width="27.3" height="27.4"/>
			<rect x="644.1" y="655.1" class="st3" width="27.3" height="27.5"/>
			<rect x="671.4" y="627.7" class="st3" width="27.3" height="27.5"/>
			<rect x="698.7" y="600.1" class="st3" width="27.3" height="27.5"/>
		</g>
		<g id="Down_2_">
			<rect x="808" y="682.6" class="st3" width="27.3" height="27.4"/>
			<rect x="780.7" y="655.1" class="st3" width="27.3" height="27.5"/>
			<rect x="753.3" y="627.6" class="st3" width="27.3" height="27.5"/>
			<rect x="726" y="600.1" class="st3" width="27.3" height="27.5"/>
		</g>
	</g>
	<g id="LeftEye_4_" class="st2">
		<rect id="rect43" x="242.6" y="314.6" class="st3" width="122.7" height="123.3"/>
	</g>
	<g id="RightEye_4_" class="st2">
		<rect id="rect48" x="649.6" y="314.6" class="st3" width="122.7" height="123.3"/>
	</g>
</g>
<g id="Blinky" class="st0">
	<polyline id="Body" class="st4" points="371.5,0 667.5,0 667.5,50 717,50 717,62 802.5,62 802.5,110.5 815.5,110.5 815.5,136 
		865,136 865,197 926.5,197 926.5,209.5 939.5,209.5 939.5,419.5 1000,419.5 1001,987 926.5,987 926.5,938.5 914,938.5 914,926 
		877.5,926 877.5,901.5 864.5,901.5 864.5,852 791,852 791,913 779,913 779,925.5 741,925.5 741,938 729.5,938 729.5,976 717,976 
		717,987 569.5,987 569.5,863.5 556,863.5 556,852 469.5,852 469.5,863 458,863 458,962.5 446,962.5 446,987 285,987 285,962.5 
		273,962.5 273,938.5 260.5,938.5 260.5,925 236,925 236,876.5 222.5,876.5 222.5,864 210.5,864 210.5,852 174,852 174,864 
		161.5,864 161.5,913 149,913 149,925.5 112,925.5 112,987 14,987 14,431.5 25.5,431.5 25.5,419.5 87,419.5 87,221 100,221 
		100,196.5 149.5,196.5 149.5,159.5 161.5,159.5 161.5,147.5 174,147.5 174,135.5 223,135.5 223,98 235.5,98 235.5,60.5 372,60.5 
		372,0 	"/>
	<g id="LeftEye" class="st2">
		<polygon class="st5" points="100,259.3 174,259.3 174,196.7 309.3,196.7 309.3,259.3 382.7,259.3 382.7,482 309.3,482 
			309.3,543.3 174,543.3 174,481.3 100,481.3 		"/>
		<rect x="100" y="357" class="st6" width="122.7" height="123.3"/>
	</g>
	<g id="RightEye" class="st2">
		<polygon class="st5" points="507,258.3 581,258.3 581,195.7 716.3,195.7 716.3,258.3 789.7,258.3 789.7,481 716.3,481 
			716.3,542.3 581,542.3 581,480.3 507,480.3 		"/>
		<rect x="507" y="356" class="st6" width="122.7" height="123.3"/>
	</g>
</g>
<g id="Clyde" class="st0">
	<polyline id="Body_1_" class="st7" points="371.5,0 667.5,0 667.5,50 717,50 717,62 802.5,62 802.5,110.5 815.5,110.5 815.5,136 
		865,136 865,197 926.5,197 926.5,209.5 939.5,209.5 939.5,419.5 1000,419.5 1001,987 926.5,987 926.5,938.5 914,938.5 914,926 
		877.5,926 877.5,901.5 864.5,901.5 864.5,852 791,852 791,913 779,913 779,925.5 741,925.5 741,938 729.5,938 729.5,976 717,976 
		717,987 569.5,987 569.5,863.5 556,863.5 556,852 469.5,852 469.5,863 458,863 458,962.5 446,962.5 446,987 285,987 285,962.5 
		273,962.5 273,938.5 260.5,938.5 260.5,925 236,925 236,876.5 222.5,876.5 222.5,864 210.5,864 210.5,852 174,852 174,864 
		161.5,864 161.5,913 149,913 149,925.5 112,925.5 112,987 14,987 14,431.5 25.5,431.5 25.5,419.5 87,419.5 87,221 100,221 
		100,196.5 149.5,196.5 149.5,159.5 161.5,159.5 161.5,147.5 174,147.5 174,135.5 223,135.5 223,98 235.5,98 235.5,60.5 372,60.5 
		372,0 	"/>
	<g id="LeftEye_1_" class="st2">
		<polygon class="st5" points="100,259.3 174,259.3 174,196.7 309.3,196.7 309.3,259.3 382.7,259.3 382.7,482 309.3,482 
			309.3,543.3 174,543.3 174,481.3 100,481.3 		"/>
		<rect x="100" y="357" class="st6" width="122.7" height="123.3"/>
	</g>
	<g id="RightEye_1_" class="st2">
		<polygon class="st5" points="507,258.3 581,258.3 581,195.7 716.3,195.7 716.3,258.3 789.7,258.3 789.7,481 716.3,481 
			716.3,542.3 581,542.3 581,480.3 507,480.3 		"/>
		<rect x="507" y="356" class="st6" width="122.7" height="123.3"/>
	</g>
</g>
<g id="Inky">
	<polyline id="Body_2_" class="st8" points="371,0 667,0 667,50 716.5,50 716.5,62 802,62 802,110.5 815,110.5 815,136 864.5,136 
		864.5,197 926,197 926,209.5 939,209.5 939,419.5 999.5,419.5 1000.5,987 926,987 926,938.5 913.5,938.5 913.5,926 877,926 
		877,901.5 864,901.5 864,852 790.5,852 790.5,913 778.5,913 778.5,925.5 740.5,925.5 740.5,938 729,938 729,976 716.5,976 
		716.5,987 569,987 569,863.5 555.5,863.5 555.5,852 469,852 469,863 457.5,863 457.5,962.5 445.5,962.5 445.5,987 284.5,987 
		284.5,962.5 272.5,962.5 272.5,938.5 260,938.5 260,925 235.5,925 235.5,876.5 222,876.5 222,864 210,864 210,852 173.5,852 
		173.5,864 161,864 161,913 148.5,913 148.5,925.5 111.5,925.5 111.5,987 13.5,987 13.5,431.5 25,431.5 25,419.5 86.5,419.5 
		86.5,221 99.5,221 99.5,196.5 149,196.5 149,159.5 161,159.5 161,147.5 173.5,147.5 173.5,135.5 222.5,135.5 222.5,98 235,98 
		235,60.5 371.5,60.5 371.5,0 	"/>
	<g id="LeftEye_2_">
		<polygon class="st5" points="99.5,259.3 173.5,259.3 173.5,196.7 308.8,196.7 308.8,259.3 382.2,259.3 382.2,482 308.8,482 
			308.8,543.3 173.5,543.3 173.5,481.3 99.5,481.3 		"/>
		<rect x="99.5" y="357" class="st6" width="122.7" height="123.3"/>
	</g>
	<g id="RightEye_2_">
		<polygon class="st5" points="506.5,258.3 580.5,258.3 580.5,195.7 715.8,195.7 715.8,258.3 789.2,258.3 789.2,481 715.8,481 
			715.8,542.3 580.5,542.3 580.5,480.3 506.5,480.3 		"/>
		<rect x="506.5" y="356" class="st6" width="122.7" height="123.3"/>
	</g>
</g>
<g id="Pinky" class="st0">
	<polyline id="Body_3_" class="st9" points="370.5,0 666.5,0 666.5,50 716,50 716,62 801.5,62 801.5,110.5 814.5,110.5 814.5,136 
		864,136 864,197 925.5,197 925.5,209.5 938.5,209.5 938.5,419.5 999,419.5 1000,987 925.5,987 925.5,938.5 913,938.5 913,926 
		876.5,926 876.5,901.5 863.5,901.5 863.5,852 790,852 790,913 778,913 778,925.5 740,925.5 740,938 728.5,938 728.5,976 716,976 
		716,987 568.5,987 568.5,863.5 555,863.5 555,852 468.5,852 468.5,863 457,863 457,962.5 445,962.5 445,987 284,987 284,962.5 
		272,962.5 272,938.5 259.5,938.5 259.5,925 235,925 235,876.5 221.5,876.5 221.5,864 209.5,864 209.5,852 173,852 173,864 
		160.5,864 160.5,913 148,913 148,925.5 111,925.5 111,987 13,987 13,431.5 24.5,431.5 24.5,419.5 86,419.5 86,221 99,221 99,196.5 
		148.5,196.5 148.5,159.5 160.5,159.5 160.5,147.5 173,147.5 173,135.5 222,135.5 222,98 234.5,98 234.5,60.5 371,60.5 371,0 	"/>
	<g id="LeftEye_3_" class="st2">
		<polygon class="st5" points="99,259.3 173,259.3 173,196.7 308.3,196.7 308.3,259.3 381.7,259.3 381.7,482 308.3,482 308.3,543.3 
			173,543.3 173,481.3 99,481.3 		"/>
		<rect x="99" y="357" class="st6" width="122.7" height="123.3"/>
	</g>
	<g id="RightEye_3_" class="st2">
		<polygon class="st5" points="506,258.3 580,258.3 580,195.7 715.3,195.7 715.3,258.3 788.7,258.3 788.7,481 715.3,481 
			715.3,542.3 580,542.3 580,480.3 506,480.3 		"/>
		<rect x="506" y="356" class="st6" width="122.7" height="123.3"/>
	</g>
</g>
</svg>
