<?xml version="1.0" encoding="utf-8"?>
<!-- Generator: Adobe Illustrator 22.0.1, SVG Export Plug-In . SVG Version: 6.00 Build 0)  -->
<svg version="1.1" id="Ebene_1" xmlns="http://www.w3.org/2000/svg" xmlns:xlink="http://www.w3.org/1999/xlink" x="0px" y="0px"
	 viewBox="0 0 1000 1000" style="enable-background:new 0 0 1000 1000;" xml:space="preserve">
<style type="text/css">
	.st0{display:none;}
	.st1{display:inline;fill:#0000FF;}
	.st2{display:inline;}
	.st3{fill:#FFFFCB;}
	.st4{display:inline;fill:#E90000;}
	.st5{fill:#FFFFFF;}
	.st6{fill:#036CBF;}
	.st7{display:inline;fill:#FFBE42;}
	.st8{display:inline;fill:#05FFE0;}
	.st9{fill:#FEBEDE;}
</style>
<g id="Hunted" class="st0">
	<polyline id="Body_4_" class="st1" points="363.5,6 659.5,6 659.5,56 709,56 709,68 794.5,68 794.5,116.5 807.5,116.5 807.5,142 
		857,142 857,203 918.5,203 918.5,215.5 931.5,215.5 931.5,425.5 992,425.5 993,993 918.5,993 918.5,944.5 906,944.5 906,932 
		869.5,932 869.5,907.5 856.5,907.5 856.5,858 783,858 783,919 771,919 771,931.5 733,931.5 733,944 721.5,944 721.5,982 709,982 
		709,993 561.5,993 561.5,869.5 548,869.5 548,858 461.5,858 461.5,869 450,869 450,968.5 438,968.5 438,993 277,993 277,968.5 
		265,968.5 265,944.5 252.5,944.5 252.5,931 228,931 228,882.5 214.5,882.5 214.5,870 202.5,870 202.5,858 166,858 166,870 
		153.5,870 153.5,919 141,919 141,931.5 104,931.5 104,993 6,993 6,437.5 17.5,437.5 17.5,425.5 79,425.5 79,227 92,227 92,202.5 
		141.5,202.5 141.5,165.5 153.5,165.5 153.5,153.5 166,153.5 166,141.5 215,141.5 215,104 227.5,104 227.5,66.5 364,66.5 364,6 	"/>
	<g id="Mouth" class="st2">
		<g id="Up_1_">
			<rect x="171.7" y="688.5" class="st3" width="27.3" height="27.4"/>
			<rect x="199" y="661" class="st3" width="27.3" height="27.5"/>
			<rect x="226.3" y="633.5" class="st3" width="27.3" height="27.5"/>
			<rect x="253.7" y="606" class="st3" width="27.3" height="27.5"/>
		</g>
		<g id="Down">
			<rect x="362.9" y="688.5" class="st3" width="27.3" height="27.4"/>
			<rect x="335.6" y="661" class="st3" width="27.3" height="27.5"/>
			<rect x="308.3" y="633.5" class="st3" width="27.3" height="27.5"/>
			<rect x="281" y="606" class="st3" width="27.3" height="27.5"/>
		</g>
		<g id="Up_2_">
			<rect x="390.2" y="688.5" class="st3" width="27.3" height="27.4"/>
			<rect x="417.6" y="661.1" class="st3" width="27.3" height="27.5"/>
			<rect x="444.9" y="633.6" class="st3" width="27.3" height="27.5"/>
			<rect x="472.2" y="606.1" class="st3" width="27.3" height="27.5"/>
		</g>
		<g id="Down_1_">
			<rect x="581.4" y="688.5" class="st3" width="27.3" height="27.4"/>
			<rect x="554.1" y="661.1" class="st3" width="27.3" height="27.5"/>
			<rect x="526.8" y="633.5" class="st3" width="27.3" height="27.5"/>
			<rect x="499.5" y="606.1" class="st3" width="27.3" height="27.5"/>
		</g>
		<g id="Up_3_">
			<rect x="608.8" y="688.6" class="st3" width="27.3" height="27.4"/>
			<rect x="636.1" y="661.1" class="st3" width="27.3" height="27.5"/>
			<rect x="663.4" y="633.7" class="st3" width="27.3" height="27.5"/>
			<rect x="690.7" y="606.1" class="st3" width="27.3" height="27.5"/>
		</g>
		<g id="Down_2_">
			<rect x="800" y="688.6" class="st3" width="27.3" height="27.4"/>
			<rect x="772.7" y="661.1" class="st3" width="27.3" height="27.5"/>
			<rect x="745.3" y="633.6" class="st3" width="27.3" height="27.5"/>
			<rect x="718" y="606.1" class="st3" width="27.3" height="27.5"/>
		</g>
	</g>
	<g id="LeftEye_4_" class="st2">
		<rect id="rect43" x="234.6" y="320.6" class="st3" width="122.7" height="123.3"/>
	</g>
	<g id="RightEye_4_" class="st2">
		<rect id="rect48" x="641.6" y="320.6" class="st3" width="122.7" height="123.3"/>
	</g>
</g>
<g id="Blinky" class="st0">
	<polyline id="Body" class="st4" points="363.5,6 659.5,6 659.5,56 709,56 709,68 794.5,68 794.5,116.5 807.5,116.5 807.5,142 
		857,142 857,203 918.5,203 918.5,215.5 931.5,215.5 931.5,425.5 992,425.5 993,993 918.5,993 918.5,944.5 906,944.5 906,932 
		869.5,932 869.5,907.5 856.5,907.5 856.5,858 783,858 783,919 771,919 771,931.5 733,931.5 733,944 721.5,944 721.5,982 709,982 
		709,993 561.5,993 561.5,869.5 548,869.5 548,858 461.5,858 461.5,869 450,869 450,968.5 438,968.5 438,993 277,993 277,968.5 
		265,968.5 265,944.5 252.5,944.5 252.5,931 228,931 228,882.5 214.5,882.5 214.5,870 202.5,870 202.5,858 166,858 166,870 
		153.5,870 153.5,919 141,919 141,931.5 104,931.5 104,993 6,993 6,437.5 17.5,437.5 17.5,425.5 79,425.5 79,227 92,227 92,202.5 
		141.5,202.5 141.5,165.5 153.5,165.5 153.5,153.5 166,153.5 166,141.5 215,141.5 215,104 227.5,104 227.5,66.5 364,66.5 364,6 	"/>
	<g id="LeftEye" class="st2">
		<polygon class="st5" points="92,265.3 166,265.3 166,202.7 301.3,202.7 301.3,265.3 374.7,265.3 374.7,488 301.3,488 301.3,549.3 
			166,549.3 166,487.3 92,487.3 		"/>
		<rect x="92" y="363" class="st6" width="122.7" height="123.3"/>
	</g>
	<g id="RightEye" class="st2">
		<polygon class="st5" points="499,264.3 573,264.3 573,201.7 708.3,201.7 708.3,264.3 781.7,264.3 781.7,487 708.3,487 
			708.3,548.3 573,548.3 573,486.3 499,486.3 		"/>
		<rect x="499" y="362" class="st6" width="122.7" height="123.3"/>
	</g>
</g>
<g id="Clyde" class="st0">
	<polyline id="Body_1_" class="st7" points="363.5,6 659.5,6 659.5,56 709,56 709,68 794.5,68 794.5,116.5 807.5,116.5 807.5,142 
		857,142 857,203 918.5,203 918.5,215.5 931.5,215.5 931.5,425.5 992,425.5 993,993 918.5,993 918.5,944.5 906,944.5 906,932 
		869.5,932 869.5,907.5 856.5,907.5 856.5,858 783,858 783,919 771,919 771,931.5 733,931.5 733,944 721.5,944 721.5,982 709,982 
		709,993 561.5,993 561.5,869.5 548,869.5 548,858 461.5,858 461.5,869 450,869 450,968.5 438,968.5 438,993 277,993 277,968.5 
		265,968.5 265,944.5 252.5,944.5 252.5,931 228,931 228,882.5 214.5,882.5 214.5,870 202.5,870 202.5,858 166,858 166,870 
		153.5,870 153.5,919 141,919 141,931.5 104,931.5 104,993 6,993 6,437.5 17.5,437.5 17.5,425.5 79,425.5 79,227 92,227 92,202.5 
		141.5,202.5 141.5,165.5 153.5,165.5 153.5,153.5 166,153.5 166,141.5 215,141.5 215,104 227.5,104 227.5,66.5 364,66.5 364,6 	"/>
	<g id="LeftEye_1_" class="st2">
		<polygon class="st5" points="92,265.3 166,265.3 166,202.7 301.3,202.7 301.3,265.3 374.7,265.3 374.7,488 301.3,488 301.3,549.3 
			166,549.3 166,487.3 92,487.3 		"/>
		<rect x="92" y="363" class="st6" width="122.7" height="123.3"/>
	</g>
	<g id="RightEye_1_" class="st2">
		<polygon class="st5" points="499,264.3 573,264.3 573,201.7 708.3,201.7 708.3,264.3 781.7,264.3 781.7,487 708.3,487 
			708.3,548.3 573,548.3 573,486.3 499,486.3 		"/>
		<rect x="499" y="362" class="st6" width="122.7" height="123.3"/>
	</g>
</g>
<g id="Inky" class="st0">
	<polyline id="Body_2_" class="st8" points="363,6 659,6 659,56 708.5,56 708.5,68 794,68 794,116.5 807,116.5 807,142 856.5,142 
		856.5,203 918,203 918,215.5 931,215.5 931,425.5 991.5,425.5 992.5,993 918,993 918,944.5 905.5,944.5 905.5,932 869,932 
		869,907.5 856,907.5 856,858 782.5,858 782.5,919 770.5,919 770.5,931.5 732.5,931.5 732.5,944 721,944 721,982 708.5,982 
		708.5,993 561,993 561,869.5 547.5,869.5 547.5,858 461,858 461,869 449.5,869 449.5,968.5 437.5,968.5 437.5,993 276.5,993 
		276.5,968.5 264.5,968.5 264.5,944.5 252,944.5 252,931 227.5,931 227.5,882.5 214,882.5 214,870 202,870 202,858 165.5,858 
		165.5,870 153,870 153,919 140.5,919 140.5,931.5 103.5,931.5 103.5,993 5.5,993 5.5,437.5 17,437.5 17,425.5 78.5,425.5 78.5,227 
		91.5,227 91.5,202.5 141,202.5 141,165.5 153,165.5 153,153.5 165.5,153.5 165.5,141.5 214.5,141.5 214.5,104 227,104 227,66.5 
		363.5,66.5 363.5,6 	"/>
	<g id="LeftEye_2_" class="st2">
		<polygon class="st5" points="91.5,265.3 165.5,265.3 165.5,202.7 300.8,202.7 300.8,265.3 374.2,265.3 374.2,488 300.8,488 
			300.8,549.3 165.5,549.3 165.5,487.3 91.5,487.3 		"/>
		<rect x="91.5" y="363" class="st6" width="122.7" height="123.3"/>
	</g>
	<g id="RightEye_2_" class="st2">
		<polygon class="st5" points="498.5,264.3 572.5,264.3 572.5,201.7 707.8,201.7 707.8,264.3 781.2,264.3 781.2,487 707.8,487 
			707.8,548.3 572.5,548.3 572.5,486.3 498.5,486.3 		"/>
		<rect x="498.5" y="362" class="st6" width="122.7" height="123.3"/>
	</g>
</g>
<g id="Pinky">
	<polyline id="Body_3_" class="st9" points="362.5,6 658.5,6 658.5,56 708,56 708,68 793.5,68 793.5,116.5 806.5,116.5 806.5,142 
		856,142 856,203 917.5,203 917.5,215.5 930.5,215.5 930.5,425.5 991,425.5 992,993 917.5,993 917.5,944.5 905,944.5 905,932 
		868.5,932 868.5,907.5 855.5,907.5 855.5,858 782,858 782,919 770,919 770,931.5 732,931.5 732,944 720.5,944 720.5,982 708,982 
		708,993 560.5,993 560.5,869.5 547,869.5 547,858 460.5,858 460.5,869 449,869 449,968.5 437,968.5 437,993 276,993 276,968.5 
		264,968.5 264,944.5 251.5,944.5 251.5,931 227,931 227,882.5 213.5,882.5 213.5,870 201.5,870 201.5,858 165,858 165,870 
		152.5,870 152.5,919 140,919 140,931.5 103,931.5 103,993 5,993 5,437.5 16.5,437.5 16.5,425.5 78,425.5 78,227 91,227 91,202.5 
		140.5,202.5 140.5,165.5 152.5,165.5 152.5,153.5 165,153.5 165,141.5 214,141.5 214,104 226.5,104 226.5,66.5 363,66.5 363,6 	"/>
	<g id="LeftEye_3_">
		<polygon class="st5" points="91,265.3 165,265.3 165,202.7 300.3,202.7 300.3,265.3 373.7,265.3 373.7,488 300.3,488 300.3,549.3 
			165,549.3 165,487.3 91,487.3 		"/>
		<rect x="91" y="363" class="st6" width="122.7" height="123.3"/>
	</g>
	<g id="RightEye_3_">
		<polygon class="st5" points="498,264.3 572,264.3 572,201.7 707.3,201.7 707.3,264.3 780.7,264.3 780.7,487 707.3,487 
			707.3,548.3 572,548.3 572,486.3 498,486.3 		"/>
		<rect x="498" y="362" class="st6" width="122.7" height="123.3"/>
	</g>
</g>
</svg>
