<?xml version="1.0" encoding="utf-8"?>
<!-- Generator: Adobe Illustrator 22.0.1, SVG Export Plug-In . SVG Version: 6.00 Build 0)  -->
<svg version="1.1" id="Ebene_1" xmlns="http://www.w3.org/2000/svg" xmlns:xlink="http://www.w3.org/1999/xlink" x="0px" y="0px"
	 viewBox="0 0 1000 1000" style="enable-background:new 0 0 1000 1000;" xml:space="preserve">
<style type="text/css">
	.st0{fill:#C1E436;}
	.st1{fill:#E11B43;}
	.st2{fill:#9B1535;}
	.st3{fill:#9CB72C;}
	.st4{fill:#771535;}
	.st5{fill:#22510C;}
</style>
<g>
	<polygon class="st0" points="535.7,215 678.6,215 678.6,142.9 750,142.9 750,71.4 607.1,71.4 607.1,142.9 535.7,142.9 	"/>
	<g>
		<path class="st1" d="M821.4,500H750v-71.4H535.7V500h-71.4v-71.4H250V500h-71.4v285.7H250v71.4h71.4v71.4h142.9v-71.4h71.4H750
			v-71.4h71.4V500z"/>
		<rect x="535.7" y="857.1" class="st1" width="142.9" height="71.4"/>
	</g>
	<rect x="250" y="571.4" class="st2" width="71.4" height="142.9"/>
	<rect x="321.4" y="714.3" class="st2" width="71.4" height="71.4"/>
	
		<rect x="607.1" y="142" transform="matrix(-1 -1.224647e-16 1.224647e-16 -1 1285.7144 357.1423)" class="st3" width="71.4" height="73.2"/>
	
		<rect x="678.6" y="70.6" transform="matrix(-1 -1.224647e-16 1.224647e-16 -1 1428.5718 214.2854)" class="st3" width="71.4" height="73.2"/>
	<g>
		<rect x="250" y="357.1" class="st4" width="214.3" height="71.4"/>
		<rect x="535.7" y="357.1" class="st4" width="214.3" height="71.4"/>
		<rect x="464.3" y="428.6" class="st4" width="71.4" height="71.4"/>
		<rect x="178.6" y="428.6" class="st4" width="71.4" height="71.4"/>
		<rect x="178.6" y="785.7" class="st4" width="71.4" height="71.4"/>
		<rect x="250" y="857.1" class="st4" width="71.4" height="71.4"/>
		<rect x="321.4" y="928.6" class="st4" width="142.9" height="71.4"/>
		<rect x="535.7" y="928.6" class="st4" width="142.9" height="71.4"/>
		<rect x="107.1" y="500" class="st4" width="71.4" height="285.7"/>
		
			<rect x="750" y="428.6" transform="matrix(-1 -1.224647e-16 1.224647e-16 -1 1571.4287 928.571)" class="st4" width="71.4" height="71.4"/>
		
			<rect x="535.7" y="71.4" transform="matrix(-1 -1.224647e-16 1.224647e-16 -1 1142.8569 214.2854)" class="st5" width="71.4" height="71.4"/>
		
			<rect x="750" y="71.4" transform="matrix(-1 -1.224647e-16 1.224647e-16 -1 1571.4287 214.2854)" class="st5" width="71.4" height="71.4"/>
		
			<rect x="750" y="785.7" transform="matrix(-1 -1.224647e-16 1.224647e-16 -1 1571.4287 1642.8572)" class="st4" width="71.4" height="71.4"/>
		
			<rect x="678.6" y="857.1" transform="matrix(-1 -1.224647e-16 1.224647e-16 -1 1428.5718 1785.7146)" class="st4" width="71.4" height="71.4"/>
		
			<rect x="464.3" y="857.1" transform="matrix(-1 -1.224647e-16 1.224647e-16 -1 1000 1785.7146)" class="st4" width="71.4" height="71.4"/>
		
			<rect x="821.4" y="500" transform="matrix(-1 -1.224647e-16 1.224647e-16 -1 1714.2856 1285.7139)" class="st4" width="71.4" height="285.7"/>
		<polygon class="st5" points="535.7,141.9 464.3,142.9 464.3,357.1 535.7,356.2 		"/>
		
			<rect x="607.1" transform="matrix(-1 -1.224647e-16 1.224647e-16 -1 1428.5713 71.4285)" class="st5" width="214.3" height="71.4"/>
		
			<rect x="678.6" y="142.9" transform="matrix(-1 -1.224647e-16 1.224647e-16 -1 1428.5718 357.1423)" class="st5" width="71.4" height="71.4"/>
		
			<rect x="535.7" y="215" transform="matrix(-1 -1.224647e-16 1.224647e-16 -1 1214.2859 500.696)" class="st5" width="142.9" height="70.7"/>
	</g>
</g>
</svg>
