<?xml version="1.0" encoding="utf-8"?>
<!-- Generator: Adobe Illustrator 22.0.1, SVG Export Plug-In . SVG Version: 6.00 Build 0)  -->
<svg version="1.1" id="Ebene_1" xmlns="http://www.w3.org/2000/svg" xmlns:xlink="http://www.w3.org/1999/xlink" x="0px" y="0px"
	 viewBox="0 0 1000 1000" style="enable-background:new 0 0 1000 1000;" xml:space="preserve">
<style type="text/css">
	.st0{fill:#FFFF00;stroke:#000000;stroke-width:35;stroke-miterlimit:10;}
	.st1{fill:#008FFF;}
	.st2{fill:#FFFFFF;}
</style>
<polygon class="st0" points="868.5,547 868.5,343 801,343 801,139 732,139 732,71.5 595.5,71.5 595.5,37 501,37 501,37.1 
	406.6,37.1 406.6,71.6 270.1,71.6 270.1,139.1 201.1,139.1 201.1,343.1 133.6,343.1 133.6,547.1 66.1,547.1 66.1,886.1 133.6,886.1 
	135.1,923.6 165.1,923.6 166.6,958.1 501.1,958.1 501.1,958 835.5,958 837,923.5 867,923.5 868.5,886 936,886 936,547 "/>
<rect x="289.1" y="287.6" width="69" height="202.5"/>
<rect x="220.1" y="559.1" width="69" height="139.5"/>
<rect x="358.1" y="217.9" width="69" height="69"/>
<rect x="426.1" y="90.1" width="133.5" height="62.5"/>
<path d="M151,763"/>
<path class="st1" d="M181.5,906.1L151,906l-0.8-86.8c-0.1-11.1,8.9-20.2,20-20.2h661.6c11.1,0,20.1,9.1,20,20.2l-0.8,86.1l-30,0.7
	v37l-639-2"/>
<path class="st1" d="M645,1151"/>
<path class="st2" d="M613.7,958.1h-87.3c-11,0-20-9-20-20V799h127.3v139.1C633.7,949.1,624.7,958.1,613.7,958.1z"/>
</svg>
