<?xml version="1.0" encoding="utf-8"?>
<!-- Generator: Adobe Illustrator 22.0.1, SVG Export Plug-In . SVG Version: 6.00 Build 0)  -->
<svg version="1.1" id="Ebene_1" xmlns="http://www.w3.org/2000/svg" xmlns:xlink="http://www.w3.org/1999/xlink" x="0px" y="0px"
	 viewBox="0 0 1000 1000" style="enable-background:new 0 0 1000 1000;" xml:space="preserve">
<style type="text/css">
	.st0{fill:#9B1535;}
	.st1{fill:#560614;}
	.st2{fill:#E11B43;}
	.st3{fill:#22510C;}
	.st4{fill:#9CB72C;}
	.st5{fill:#C1E436;}
</style>
<g>
	<polygon class="st0" points="466.8,866.7 533.5,866.7 533.5,933.3 800.1,933.3 800.1,866.7 866.8,866.7 866.8,599.8 800.1,599.8 
		800.1,533.1 533.5,533.2 533.5,599.8 466.8,599.8 	"/>
	<polygon class="st0" points="400.1,866.5 200.1,866.7 200.1,800 133.4,800 133.4,533.2 200.1,533.2 200.1,466.5 466.8,466.5 
		466.8,599.8 400.1,599.8 	"/>
	<g id="Border">
		<rect x="400.1" y="599.8" class="st1" width="66.7" height="266.7"/>
		<rect x="866.8" y="599.8" class="st1" width="66.7" height="266.7"/>
		
			<rect x="633.5" y="366.5" transform="matrix(-1.836970e-16 1 -1 -1.836970e-16 1166.6472 -167.0174)" class="st1" width="66.7" height="266.5"/>
		
			<rect x="633.5" y="833.4" transform="matrix(-1.836970e-16 1 -1 -1.836970e-16 1633.4915 299.8268)" class="st1" width="66.7" height="266.5"/>
		<rect x="466.8" y="533.1" class="st1" width="66.7" height="66.7"/>
		<rect x="466.8" y="866.7" class="st1" width="66.7" height="66.7"/>
		<rect x="800.1" y="866.7" class="st1" width="66.7" height="66.7"/>
		<rect x="800.1" y="533.1" class="st1" width="66.7" height="66.7"/>
		<rect x="533.6" y="666.5" class="st2" width="66.6" height="133.5"/>
		<rect x="600.1" y="800" class="st2" width="66.6" height="66.6"/>
		<rect x="66.8" y="533.1" class="st1" width="66.7" height="266.7"/>
		
			<rect x="300.2" y="299.9" transform="matrix(-1.836970e-16 1 -1 -1.836970e-16 766.6481 99.6481)" class="st1" width="66.7" height="266.5"/>
		
			<rect x="300.2" y="766.7" transform="matrix(-1.836970e-16 1 -1 -1.836970e-16 1233.4927 566.4926)" class="st1" width="66.7" height="266.5"/>
		<rect x="133.4" y="466.5" class="st1" width="66.7" height="66.7"/>
		<rect x="133.4" y="800" class="st1" width="66.7" height="66.7"/>
		<rect x="466.8" y="466.5" class="st1" width="66.7" height="66.7"/>
		<rect x="200.2" y="599.8" class="st2" width="66.6" height="133.5"/>
		<rect x="266.8" y="733.4" class="st2" width="66.6" height="66.6"/>
		<rect x="400.1" y="266.7" class="st3" width="66.7" height="66.7"/>
		<rect x="466.8" y="200.6" class="st3" width="66.7" height="66.7"/>
		<rect x="600.1" y="134.1" class="st3" width="66.7" height="66.7"/>
		<rect x="800.1" y="134.9" class="st3" width="66.7" height="66.7"/>
		<rect x="666.8" y="200" class="st3" width="133.3" height="66.7"/>
		<rect x="666.8" y="67.5" class="st3" width="66.7" height="66.7"/>
		<rect x="866.8" y="67.5" class="st3" width="66.7" height="66.7"/>
		<rect x="733.5" class="st3" width="200" height="66.7"/>
		<rect x="333.5" y="134.1" class="st3" width="133.3" height="66.7"/>
		<rect x="266.8" y="66.7" class="st3" width="66.7" height="66.7"/>
		<rect x="266.8" class="st3" width="266.7" height="66.7"/>
		<rect x="533.5" y="66.7" class="st3" width="66.7" height="133.3"/>
		<rect x="600.1" y="200" class="st3" width="66.7" height="266.6"/>
		<rect x="333.5" y="333.3" class="st3" width="66.7" height="67.4"/>
	</g>
	<polygon class="st4" points="466.8,200.8 533.5,200 533.5,66.7 333.5,66.7 333.5,133.3 466.8,134.1 	"/>
	<polygon class="st5" points="666.8,134.1 666.8,200 800.1,200 800.1,134.9 866.8,134.1 866.8,67.5 733.5,66.7 733.5,134.1 	"/>
</g>
</svg>
