<?xml version="1.0" encoding="utf-8"?>
<!-- Generator: Adobe Illustrator 22.0.1, SVG Export Plug-In . SVG Version: 6.00 Build 0)  -->
<svg version="1.1" id="Ebene_1" xmlns="http://www.w3.org/2000/svg" xmlns:xlink="http://www.w3.org/1999/xlink" x="0px" y="0px"
	 viewBox="0 0 1000 1000" style="enable-background:new 0 0 1000 1000;" xml:space="preserve">
<style type="text/css">
	.st0{fill:#7A52BB;}
	.st1{fill:#B281DD;}
	.st2{fill:#4A3E84;}
	.st3{fill:#5B3C1A;}
</style>
<g>
	<polygon class="st0" points="624.7,333.4 624.7,250.4 457.8,250 457.8,333.4 207.4,333.4 207.4,500.3 290.9,499.9 290.9,750.8 
		374.3,750.3 374.3,917.7 541.3,917.7 541.3,667.2 708.2,667.2 708.2,500.3 791.5,500.3 791.5,333.4 	"/>
	<rect x="207.4" y="333.8" class="st1" width="83.5" height="83.5"/>
	<rect x="290.9" y="583.2" class="st1" width="83.5" height="83.5"/>
	<rect x="457.8" y="250" class="st1" width="83.5" height="83.5"/>
	<rect x="541.2" y="500.4" class="st1" width="83.5" height="83.5"/>
	<rect x="457.8" y="750" class="st1" width="83.5" height="84.2"/>
	<rect x="708.1" y="332.9" class="st1" width="83.5" height="83.5"/>
	<g>
		<g>
			<rect x="290.9" y="750.1" class="st2" width="83.5" height="83.5"/>
			<rect x="374.4" y="750.1" class="st2" width="83.5" height="83.5"/>
			<rect x="290.9" y="500.3" class="st2" width="83.5" height="83.5"/>
			<rect x="374.4" y="500.3" class="st2" width="83.5" height="83.5"/>
			
				<rect x="457.8" y="583.7" transform="matrix(-1.836970e-16 1 -1 -1.836970e-16 1124.978 125.8878)" class="st2" width="83.5" height="83.5"/>
			
				<rect x="458.1" y="666.9" transform="matrix(-1.836970e-16 1 -1 -1.836970e-16 1208.1367 209.0465)" class="st2" width="82.9" height="83.5"/>
			
				<rect x="207.5" y="583.7" transform="matrix(-1.836970e-16 1 -1 -1.836970e-16 874.6229 376.243)" class="st2" width="83.5" height="83.5"/>
			
				<rect x="207.5" y="667.2" transform="matrix(-1.836970e-16 1 -1 -1.836970e-16 958.0746 459.6947)" class="st2" width="83.5" height="83.5"/>
		</g>
		<g>
			<rect x="541.3" y="666.6" class="st2" width="83.5" height="83.5"/>
			<rect x="624.7" y="666.6" class="st2" width="83.5" height="83.5"/>
			<rect x="541.3" y="416.7" class="st2" width="83.5" height="83.5"/>
			<rect x="624.7" y="416.7" class="st2" width="83.5" height="83.5"/>
			
				<rect x="708.2" y="500.1" transform="matrix(-1.836970e-16 1 -1 -1.836970e-16 1291.7576 -208.0439)" class="st2" width="83.5" height="83.5"/>
			
				<rect x="708.2" y="583.6" transform="matrix(-1.836970e-16 1 -1 -1.836970e-16 1375.2092 -124.5922)" class="st2" width="83.5" height="83.5"/>
			
				<rect x="457.8" y="500.1" transform="matrix(-1.836970e-16 1 -1 -1.836970e-16 1041.4019 42.3118)" class="st2" width="83.5" height="83.5"/>
			
				<rect x="457.8" y="583.6" transform="matrix(-1.836970e-16 1 -1 -1.836970e-16 1124.8536 125.7635)" class="st2" width="83.5" height="83.5"/>
		</g>
		<g>
			<rect x="207.5" y="499.7" class="st2" width="83.5" height="83.5"/>
			<rect x="290.9" y="499.7" class="st2" width="83.5" height="83.5"/>
			<rect x="207.5" y="249.8" class="st2" width="83.5" height="83.5"/>
			<rect x="290.9" y="249.8" class="st2" width="83.5" height="83.5"/>
			
				<rect x="374.4" y="333.2" transform="matrix(-1.836970e-16 1 -1 -1.836970e-16 791.0679 -41.1189)" class="st2" width="83.5" height="83.5"/>
			
				<rect x="374.4" y="416.7" transform="matrix(-1.836970e-16 1 -1 -1.836970e-16 874.5196 42.3328)" class="st2" width="83.5" height="83.5"/>
			
				<rect x="124" y="333.2" transform="matrix(-1.836970e-16 1 -1 -1.836970e-16 540.7127 209.2363)" class="st2" width="83.5" height="83.5"/>
			
				<rect x="124" y="416.7" transform="matrix(-1.836970e-16 1 -1 -1.836970e-16 624.1644 292.688)" class="st2" width="83.5" height="83.5"/>
		</g>
		<g>
			<rect x="457.8" y="416.7" class="st2" width="83.5" height="83.5"/>
			<rect x="541.3" y="416.7" class="st2" width="83.5" height="83.5"/>
			<rect x="457.8" y="166.8" class="st2" width="83.5" height="83.5"/>
			<rect x="541.3" y="166.8" class="st2" width="83.5" height="83.5"/>
			
				<rect x="624.7" y="250.2" transform="matrix(-1.836970e-16 1 -1 -1.836970e-16 958.3937 -374.5038)" class="st2" width="83.5" height="83.5"/>
			
				<rect x="624.7" y="333.7" transform="matrix(-1.836970e-16 1 -1 -1.836970e-16 1041.8455 -291.0521)" class="st2" width="83.5" height="83.5"/>
			
				<rect x="374.4" y="250.2" transform="matrix(-1.836970e-16 1 -1 -1.836970e-16 708.0383 -124.1484)" class="st2" width="83.5" height="83.5"/>
			
				<rect x="374.4" y="333.7" transform="matrix(-1.836970e-16 1 -1 -1.836970e-16 791.4901 -40.6967)" class="st2" width="83.5" height="83.5"/>
		</g>
		<g>
			<rect x="374.4" y="917" class="st2" width="83.5" height="83.5"/>
			<rect x="457.8" y="917" class="st2" width="83.5" height="83.5"/>
			
				<rect x="541" y="750.3" transform="matrix(-1.836970e-16 1 -1 -1.836970e-16 1375.0319 209.0384)" class="st2" width="84" height="83.5"/>
			
				<rect x="541.3" y="834" transform="matrix(-1.836970e-16 1 -1 -1.836970e-16 1458.7688 292.7752)" class="st2" width="83.5" height="83.5"/>
			
				<rect x="290.9" y="834" transform="matrix(-1.836970e-16 1 -1 -1.836970e-16 1208.4136 543.1303)" class="st2" width="83.5" height="83.5"/>
		</g>
		<g>
			<rect x="708.1" y="249.8" class="st2" width="83.5" height="83.5"/>
			
				<rect x="791.6" y="333.2" transform="matrix(-1.836970e-16 1 -1 -1.836970e-16 1208.261 -458.312)" class="st2" width="83.5" height="83.5"/>
			
				<rect x="791.6" y="416.7" transform="matrix(-1.836970e-16 1 -1 -1.836970e-16 1291.7128 -374.8603)" class="st2" width="83.5" height="83.5"/>
		</g>
		<rect x="374.4" y="83" class="st3" width="83.5" height="166.9"/>
		<rect x="457.8" y="-0.5" class="st3" width="250.3" height="83.5"/>
		<rect x="708.1" y="83" class="st3" width="83.5" height="83.5"/>
		<rect x="290.9" y="-0.5" class="st3" width="83.5" height="83.5"/>
		<rect x="207.5" y="83" class="st3" width="83.5" height="83.5"/>
	</g>
</g>
</svg>
