<?xml version="1.0" encoding="utf-8"?>
<!-- Generator: Adobe Illustrator 22.0.1, SVG Export Plug-In . SVG Version: 6.00 Build 0)  -->
<svg version="1.1" id="Ebene_1" xmlns="http://www.w3.org/2000/svg" xmlns:xlink="http://www.w3.org/1999/xlink" x="0px" y="0px"
	 viewBox="0 0 1000 1000" style="enable-background:new 0 0 1000 1000;" xml:space="preserve">
<style type="text/css">
	.st0{fill:#0AC4FF;stroke:#000000;stroke-width:30;stroke-miterlimit:10;}
	.st1{fill:#FFFFFF;stroke:#000000;stroke-width:30;stroke-miterlimit:10;}
	.st2{stroke:#000000;stroke-width:30;stroke-miterlimit:10;}
</style>
<polygon class="st0" points="244.5,380 755.5,380 755.5,142 720.5,142 720.5,73 586.5,73 586.5,38 344.5,38 344.5,73 244.5,73 "/>
<polygon class="st1" points="346.5,824 346.5,859 414.5,859 414.5,928 452.2,928 452.8,962 517.5,962 517.5,858 584.5,858 
	584.5,793 619.6,793 653.5,738 653.5,686 619.5,686 583.5,686 583.5,549 619.5,549 619.5,517 653.5,517 653.5,453 615.5,413 
	583.5,413 583.5,380 346.5,380 "/>
<polygon class="st2" points="448.5,824 478.5,824 478.5,612 574.5,612 574.5,586 478.5,586 478.5,380 448.5,380 "/>
<path d="M549.5,187h-172c-8.3,0-15-6.7-15-15v-36c0-8.3,6.7-15,15-15h172c8.3,0,15,6.7,15,15v36C564.5,180.3,557.8,187,549.5,187z"
	/>
</svg>
