<?xml version="1.0" encoding="utf-8"?>
<!-- Generator: Adobe Illustrator 22.0.1, SVG Export Plug-In . SVG Version: 6.00 Build 0)  -->
<svg version="1.1" id="Ebene_1" xmlns="http://www.w3.org/2000/svg" xmlns:xlink="http://www.w3.org/1999/xlink" x="0px" y="0px"
	 viewBox="0 0 1000 1000" style="enable-background:new 0 0 1000 1000;" xml:space="preserve">
<style type="text/css">
	.st0{fill:#C1E436;}
	.st1{fill:#FF9933;}
	.st2{fill:#BC6A20;}
	.st3{fill:#9CB72C;}
	.st4{fill:#8E4819;}
	.st5{fill:#22510C;}
</style>
<g>
	<polygon class="st0" points="493.9,216 351,216 351,143.9 279.6,143.9 279.6,71.4 422.5,71.4 422.5,142.9 493.9,142.9 	"/>
	<polygon class="st1" points="279.6,500 279.6,857.1 351,857.1 351,928.6 708.2,928.6 708.2,857.1 779.6,857.1 779.6,500 708.2,500 
		708.2,428.6 351,428.6 351,500 	"/>
	<rect x="351" y="571.4" class="st2" width="71.4" height="214.3"/>
	<rect x="422.5" y="785.7" class="st2" width="71.4" height="71.4"/>
	<rect x="351" y="142.9" class="st3" width="71.4" height="73.2"/>
	<rect x="279.6" y="69.7" class="st3" width="71.4" height="73.2"/>
	<g>
		
			<rect x="279.6" y="428.6" transform="matrix(-1 -1.224647e-16 1.224647e-16 -1 630.6642 928.5706)" class="st4" width="71.4" height="71.4"/>
		
			<rect x="279.6" y="857.1" transform="matrix(-1 -1.224647e-16 1.224647e-16 -1 630.6642 1785.714)" class="st4" width="71.4" height="71.4"/>
		
			<rect x="708.2" y="857.1" transform="matrix(-1 -1.224647e-16 1.224647e-16 -1 1487.8068 1785.714)" class="st4" width="71.4" height="71.4"/>
		
			<rect x="708.2" y="428.6" transform="matrix(-1 -1.224647e-16 1.224647e-16 -1 1487.8068 928.5706)" class="st4" width="71.4" height="71.4"/>
		
			<rect x="208.2" y="500" transform="matrix(-1 -1.224647e-16 1.224647e-16 -1 487.8072 1357.1422)" class="st4" width="71.4" height="357.1"/>
		
			<rect x="779.6" y="500" transform="matrix(-1 -1.224647e-16 1.224647e-16 -1 1630.6638 1357.1422)" class="st4" width="71.4" height="357.1"/>
		
			<rect x="493.9" y="214.3" transform="matrix(6.123234e-17 -1 1 6.123234e-17 136.761 922.4745)" class="st4" width="71.4" height="357.1"/>
		
			<rect x="493.9" y="785.7" transform="matrix(6.123234e-17 -1 1 6.123234e-17 -434.6678 1493.9032)" class="st4" width="71.4" height="357.1"/>
		<rect x="422.5" y="71.4" class="st5" width="71.4" height="71.4"/>
		<rect x="208.2" y="71.4" class="st5" width="71.4" height="71.4"/>
		<rect x="351" y="215" class="st5" width="142.9" height="71.4"/>
		
			<rect x="493.9" y="142.9" transform="matrix(-1 -1.224647e-16 1.224647e-16 -1 1059.2355 499.9993)" class="st5" width="71.4" height="214.3"/>
		<rect x="279.6" y="142.9" class="st5" width="71.4" height="71.4"/>
		<rect x="208.2" y="0" class="st5" width="214.3" height="71.4"/>
	</g>
</g>
</svg>
