<?xml version="1.0" encoding="utf-8"?>
<!-- Generator: Adobe Illustrator 22.0.1, SVG Export Plug-In . SVG Version: 6.00 Build 0)  -->
<svg version="1.1" id="Ebene_1" xmlns="http://www.w3.org/2000/svg" xmlns:xlink="http://www.w3.org/1999/xlink" x="0px" y="0px"
	 viewBox="0 0 1000 1000" style="enable-background:new 0 0 1000 1000;" xml:space="preserve">
<style type="text/css">
	.st0{fill:#0C0094;stroke:#000000;stroke-width:35;stroke-miterlimit:10;}
	.st1{fill:#FFFF00;}
	.st2{fill:#FF0000;}
</style>
<image style="display:none;overflow:visible;" width="240" height="35" xlink:href="C:\Users\Timo Kramer\Desktop\fruits.png"  transform="matrix(39.5525 0 0 39.5525 -6218.6953 -182.3684)">
</image>
<polygon class="st0" points="850.4,100 850.4,181.5 812.6,181.5 812.6,251.3 737,251.3 737,216.4 704.9,216.4 704.9,175.7 
	661.3,175.7 661.3,134.9 620.5,134.9 620.5,100 579.8,100 579.8,24.3 500,24.3 500,23.9 420.2,23.9 420.2,99.6 379.5,99.6 
	379.5,134.5 338.7,134.5 338.7,175.3 295.1,175.3 295.1,216 263,216 263,250.9 187.4,250.9 187.4,181.1 149.6,181.1 149.6,99.6 
	33.1,99.6 33.1,512.8 105.9,512.8 105.9,594.3 184.5,594.3 184.5,670 257.2,670 257.2,745.6 335.8,745.6 335.8,821.3 379.5,821.3 
	379.5,902.8 452.2,902.8 452.2,975.7 500,975.7 500,976.1 547.8,976.1 547.8,903.2 620.5,903.2 620.5,821.7 664.2,821.7 664.2,746 
	742.8,746 742.8,670.4 815.5,670.4 815.5,594.7 894.1,594.7 894.1,513.2 966.9,513.2 966.9,100 "/>
<polygon class="st1" points="780.3,328.7 780.3,398.5 743.9,398.5 743.9,439.3 703.2,439.3 627.6,439.3 627.6,362.2 586.8,362.2 
	586.8,328.7 553.4,328.7 553.4,480 514.5,480 479.7,480 440.9,480 440.9,328.7 407.5,328.7 407.5,362.2 366.7,362.2 366.7,439.3 
	291.1,439.3 250.3,439.3 250.3,398.5 214,398.5 214,328.7 135.4,328.7 135.4,478.5 209.6,478.5 209.6,554.2 288.2,554.2 
	288.2,628.4 401.6,628.4 401.6,675 438,675 438,782.6 479.7,823.1 479.7,941.2 480.2,941.2 514.1,941.2 514.5,941.2 514.5,821.6 
	556.3,784.1 556.3,675 592.6,675 592.6,628.4 706.1,628.4 706.1,554.2 784.7,554.2 784.7,478.5 858.9,478.5 858.9,328.7 "/>
<polygon class="st2" points="720.3,270.5 720.3,234.1 688.2,234.1 688.2,191.9 649.5,191.9 649.5,154.1 558.8,154.1 558.8,117.7 
	500,117.7 435.4,117.7 435.4,154.1 344.7,154.1 344.7,191.9 305.9,191.9 305.9,234.1 273.9,234.1 273.9,270.5 175,270.5 175,328.7 
	213.9,328.7 213.9,398.5 250.2,398.5 250.2,439.3 366.6,439.3 366.6,362.2 407.4,362.2 407.4,328.7 440.8,328.7 440.8,480 500,480 
	553.4,480 553.4,328.7 586.8,328.7 586.8,362.2 627.6,362.2 627.6,439.3 743.9,439.3 743.9,398.5 780.3,398.5 780.3,328.7 
	819.2,328.7 819.2,270.5 "/>
</svg>
