<?xml version="1.0" encoding="utf-8"?>
<!-- Generator: Adobe Illustrator 22.0.1, SVG Export Plug-In . SVG Version: 6.00 Build 0)  -->
<svg version="1.1" id="Ebene_1" xmlns="http://www.w3.org/2000/svg" xmlns:xlink="http://www.w3.org/1999/xlink" x="0px" y="0px"
	 viewBox="0 0 1000 1000" style="enable-background:new 0 0 1000 1000;" xml:space="preserve">
<style type="text/css">
	.st0{fill:#668632;}
	.st1{fill:#E11B43;}
	.st2{fill:#771535;}
	.st3{fill:#22510C;}
	.st4{fill:#9B1535;}
</style>
<g>
	<rect x="298.7" y="249.3" class="st0" width="416.6" height="83.1"/>
	<path class="st1" d="M215.4,332.6c0.1,0,83.4,0,83.4,0V416h83.4l-0.1-83.3h83.4l-0.1,83.3h83.4l-0.1-83.3h83.4v83.4l83.1-0.7
		l0.2-82.7l83.1-0.3v416.4l-83.3,0.5l0,83.3h-83.3v83.3L382,915.6l0.1-82.9l-83.4,0v-83.3l-83.3,0.4V332.6z"/>
	<rect x="382" y="916.1" class="st2" width="250" height="83.3"/>
	<rect x="298.7" y="832.3" class="st2" width="83.3" height="83.3"/>
	<rect x="215.4" y="749.4" class="st2" width="83.3" height="83.3"/>
	<rect x="215.4" y="249.3" class="st3" width="83.3" height="83.3"/>
	<rect x="715.3" y="249.1" class="st3" width="83.3" height="83.3"/>
	<rect x="298.7" y="165.8" class="st3" width="416.6" height="83.3"/>
	<rect x="132" y="332.6" class="st2" width="83.3" height="417.2"/>
	<rect x="715.3" y="749.4" class="st2" width="83.3" height="83.3"/>
	<rect x="798.6" y="332.4" class="st2" width="83.3" height="416.4"/>
	<rect x="631.9" y="832.7" class="st2" width="83.3" height="83.3"/>
	<rect x="465.3" y="-0.6" class="st3" width="83.4" height="166.7"/>
	<rect x="298.7" y="332.6" class="st3" width="83.4" height="83.4"/>
	<rect x="465.4" y="332.6" class="st3" width="83.4" height="83.4"/>
	<rect x="382.1" y="249.3" class="st3" width="83.4" height="83.4"/>
	<rect x="548.7" y="249.3" class="st3" width="83.4" height="83.4"/>
	<rect x="632.1" y="332.7" class="st3" width="83.4" height="83.4"/>
	<rect x="215.4" y="499" class="st4" width="83.4" height="83.4"/>
	<rect x="382.1" y="582.5" class="st4" width="83.4" height="83.4"/>
	<rect x="548.7" y="666.1" class="st4" width="83.4" height="83.4"/>
	<rect x="382.1" y="749.4" class="st4" width="83.4" height="83.4"/>
	<rect x="548.7" y="499.5" class="st4" width="83.4" height="83.4"/>
	<rect x="715.2" y="415.4" class="st4" width="83.4" height="83.4"/>
	<rect x="715.2" y="582.5" class="st4" width="83.4" height="83.4"/>
</g>
</svg>
