<?xml version="1.0" encoding="utf-8"?>
<!-- Generator: Adobe Illustrator 22.0.1, SVG Export Plug-In . SVG Version: 6.00 Build 0)  -->
<svg version="1.1" id="Pinky_1_" xmlns="http://www.w3.org/2000/svg" xmlns:xlink="http://www.w3.org/1999/xlink" x="0px" y="0px"
	 viewBox="0 0 1000 1000" style="enable-background:new 0 0 1000 1000;" xml:space="preserve">
<style type="text/css">
	.st0{fill:#FEBEDE;}
	.st1{fill:#FFFFFF;}
	.st2{fill:#036CBF;}
</style>
<polyline id="Body_3_" class="st0" points="362.5,6 658.5,6 658.5,56 708,56 708,68 793.5,68 793.5,116.5 806.5,116.5 806.5,142 
	856,142 856,203 917.5,203 917.5,215.5 930.5,215.5 930.5,425.5 991,425.5 992,993 917.5,993 917.5,944.5 905,944.5 905,932 
	868.5,932 868.5,907.5 855.5,907.5 855.5,858 782,858 782,919 770,919 770,931.5 732,931.5 732,944 720.5,944 720.5,982 708,982 
	708,993 560.5,993 560.5,869.5 547,869.5 547,858 460.5,858 460.5,869 449,869 449,968.5 437,968.5 437,993 276,993 276,968.5 
	264,968.5 264,944.5 251.5,944.5 251.5,931 227,931 227,882.5 213.5,882.5 213.5,870 201.5,870 201.5,858 165,858 165,870 
	152.5,870 152.5,919 140,919 140,931.5 103,931.5 103,993 5,993 5,437.5 16.5,437.5 16.5,425.5 78,425.5 78,227 91,227 91,202.5 
	140.5,202.5 140.5,165.5 152.5,165.5 152.5,153.5 165,153.5 165,141.5 214,141.5 214,104 226.5,104 226.5,66.5 363,66.5 363,6 "/>
<g id="LeftEye_3_">
	<polygon class="st1" points="91,265.3 165,265.3 165,202.7 300.3,202.7 300.3,265.3 373.7,265.3 373.7,488 300.3,488 300.3,549.3 
		165,549.3 165,487.3 91,487.3 	"/>
	<rect x="91" y="363" class="st2" width="122.7" height="123.3"/>
</g>
<g id="RightEye_3_">
	<polygon class="st1" points="498,264.3 572,264.3 572,201.7 707.3,201.7 707.3,264.3 780.7,264.3 780.7,487 707.3,487 707.3,548.3 
		572,548.3 572,486.3 498,486.3 	"/>
	<rect x="498" y="362" class="st2" width="122.7" height="123.3"/>
</g>
</svg>
