<?xml version="1.0" encoding="utf-8"?>
<!-- Generator: Adobe Illustrator 22.0.1, SVG Export Plug-In . SVG Version: 6.00 Build 0)  -->
<svg version="1.1" id="Blinky_1_" xmlns="http://www.w3.org/2000/svg" xmlns:xlink="http://www.w3.org/1999/xlink" x="0px" y="0px"
	 viewBox="0 0 1000 1000" style="enable-background:new 0 0 1000 1000;" xml:space="preserve">
<style type="text/css">
	.st0{fill:#E90000;}
	.st1{fill:#FFFFFF;}
	.st2{fill:#036CBF;}
</style>
<polyline id="Body" class="st0" points="363.5,6 659.5,6 659.5,56 709,56 709,68 794.5,68 794.5,116.5 807.5,116.5 807.5,142 
	857,142 857,203 918.5,203 918.5,215.5 931.5,215.5 931.5,425.5 992,425.5 993,993 918.5,993 918.5,944.5 906,944.5 906,932 
	869.5,932 869.5,907.5 856.5,907.5 856.5,858 783,858 783,919 771,919 771,931.5 733,931.5 733,944 721.5,944 721.5,982 709,982 
	709,993 561.5,993 561.5,869.5 548,869.5 548,858 461.5,858 461.5,869 450,869 450,968.5 438,968.5 438,993 277,993 277,968.5 
	265,968.5 265,944.5 252.5,944.5 252.5,931 228,931 228,882.5 214.5,882.5 214.5,870 202.5,870 202.5,858 166,858 166,870 
	153.5,870 153.5,919 141,919 141,931.5 104,931.5 104,993 6,993 6,437.5 17.5,437.5 17.5,425.5 79,425.5 79,227 92,227 92,202.5 
	141.5,202.5 141.5,165.5 153.5,165.5 153.5,153.5 166,153.5 166,141.5 215,141.5 215,104 227.5,104 227.5,66.5 364,66.5 364,6 "/>
<g id="LeftEye">
	<polygon class="st1" points="918,487.8 844,487.8 844,549.8 708.8,549.8 708.8,488.5 635.3,488.5 635.4,265.8 708.8,265.8 
		708.8,203.2 844.1,203.2 844.1,265.8 918.1,265.8 	"/>
	<rect x="795.4" y="363.5" class="st2" width="122.7" height="123.3"/>
</g>
<g id="RightEye">
	<polygon class="st1" points="511.1,486.8 437.1,486.8 437.1,548.8 301.8,548.8 301.8,487.5 228.4,487.5 228.4,264.8 301.8,264.8 
		301.8,202.2 437.1,202.2 437.1,264.8 511.1,264.8 	"/>
	<rect x="388.4" y="362.5" class="st2" width="122.7" height="123.3"/>
</g>
</svg>
