<?xml version="1.0" encoding="utf-8"?>
<!-- Generator: Adobe Illustrator 22.0.1, SVG Export Plug-In . SVG Version: 6.00 Build 0)  -->
<svg version="1.1" id="Inky_1_" xmlns="http://www.w3.org/2000/svg" xmlns:xlink="http://www.w3.org/1999/xlink" x="0px" y="0px"
	 viewBox="0 0 1000 1000" style="enable-background:new 0 0 1000 1000;" xml:space="preserve">
<style type="text/css">
	.st0{fill:#05FFE0;}
	.st1{fill:#FFFFFF;}
	.st2{fill:#036CBF;}
</style>
<polyline id="Body_2_" class="st0" points="371,0 667,0 667,50 716.5,50 716.5,62 802,62 802,110.5 815,110.5 815,136 864.5,136 
	864.5,197 926,197 926,209.5 939,209.5 939,419.5 999.5,419.5 1000.5,987 926,987 926,938.5 913.5,938.5 913.5,926 877,926 
	877,901.5 864,901.5 864,852 790.5,852 790.5,913 778.5,913 778.5,925.5 740.5,925.5 740.5,938 729,938 729,976 716.5,976 
	716.5,987 569,987 569,863.5 555.5,863.5 555.5,852 469,852 469,863 457.5,863 457.5,962.5 445.5,962.5 445.5,987 284.5,987 
	284.5,962.5 272.5,962.5 272.5,938.5 260,938.5 260,925 235.5,925 235.5,876.5 222,876.5 222,864 210,864 210,852 173.5,852 
	173.5,864 161,864 161,913 148.5,913 148.5,925.5 111.5,925.5 111.5,987 13.5,987 13.5,431.5 25,431.5 25,419.5 86.5,419.5 
	86.5,221 99.5,221 99.5,196.5 149,196.5 149,159.5 161,159.5 161,147.5 173.5,147.5 173.5,135.5 222.5,135.5 222.5,98 235,98 
	235,60.5 371.5,60.5 371.5,0 "/>
<g id="LeftEye_2_">
	<polygon class="st1" points="851.8,480.8 777.8,480.8 777.8,542.8 642.5,542.8 642.5,481.5 569.1,481.5 569.2,258.8 642.6,258.8 
		642.6,196.2 777.9,196.2 777.9,258.8 851.9,258.8 	"/>
	<rect x="648.2" y="417.6" class="st2" width="122.7" height="123.3"/>
</g>
<g id="RightEye_2_">
	<polygon class="st1" points="444.9,479.8 370.9,479.8 370.9,541.8 235.6,541.8 235.6,480.5 162.1,480.5 162.1,257.8 235.6,257.8 
		235.6,195.2 370.9,195.2 370.9,257.8 444.9,257.8 	"/>
	<rect x="241.1" y="416.6" class="st2" width="122.7" height="123.3"/>
</g>
</svg>
